<mxfile host="Electron" modified="2024-01-25T23:57:03.573Z" agent="Mozilla/5.0 (Macintosh; Intel Mac OS X 10_15_7) AppleWebKit/537.36 (KHTML, like Gecko) draw.io/22.1.21 Chrome/120.0.6099.109 Electron/28.1.0 Safari/537.36" etag="qxVx1gvO7pu1yFDqa7ZU" version="22.1.21" type="device">
  <diagram name="Page-1" id="udLMG3ap0CvgukWkueTY">
    <mxGraphModel dx="1283" dy="929" grid="1" gridSize="10" guides="1" tooltips="1" connect="1" arrows="1" fold="1" page="1" pageScale="1" pageWidth="850" pageHeight="1100" math="0" shadow="0">
      <root>
        <mxCell id="0" />
        <mxCell id="1" parent="0" />
        <mxCell id="UI5CxxbX_UX-fq3BGyV1-1" value="" style="rounded=1;whiteSpace=wrap;html=1;" vertex="1" parent="1">
          <mxGeometry x="320" y="130" width="520" height="530" as="geometry" />
        </mxCell>
        <mxCell id="UI5CxxbX_UX-fq3BGyV1-16" style="edgeStyle=orthogonalEdgeStyle;rounded=0;orthogonalLoop=1;jettySize=auto;html=1;" edge="1" parent="1" source="UI5CxxbX_UX-fq3BGyV1-2" target="UI5CxxbX_UX-fq3BGyV1-1">
          <mxGeometry relative="1" as="geometry" />
        </mxCell>
        <mxCell id="UI5CxxbX_UX-fq3BGyV1-17" value="HTTP" style="edgeLabel;html=1;align=center;verticalAlign=middle;resizable=0;points=[];" vertex="1" connectable="0" parent="UI5CxxbX_UX-fq3BGyV1-16">
          <mxGeometry x="-0.2556" relative="1" as="geometry">
            <mxPoint x="-1" as="offset" />
          </mxGeometry>
        </mxCell>
        <mxCell id="UI5CxxbX_UX-fq3BGyV1-2" value="Client" style="verticalLabelPosition=bottom;aspect=fixed;html=1;shape=mxgraph.salesforce.web;" vertex="1" parent="1">
          <mxGeometry x="80" y="371.3" width="60" height="47.400000000000006" as="geometry" />
        </mxCell>
        <mxCell id="UI5CxxbX_UX-fq3BGyV1-11" style="edgeStyle=orthogonalEdgeStyle;rounded=0;orthogonalLoop=1;jettySize=auto;html=1;entryX=0;entryY=0.5;entryDx=0;entryDy=0;" edge="1" parent="1" target="UI5CxxbX_UX-fq3BGyV1-4">
          <mxGeometry relative="1" as="geometry">
            <mxPoint x="470" y="370" as="sourcePoint" />
          </mxGeometry>
        </mxCell>
        <mxCell id="UI5CxxbX_UX-fq3BGyV1-12" style="edgeStyle=orthogonalEdgeStyle;rounded=0;orthogonalLoop=1;jettySize=auto;html=1;entryX=0;entryY=0.5;entryDx=0;entryDy=0;" edge="1" parent="1" source="UI5CxxbX_UX-fq3BGyV1-3" target="UI5CxxbX_UX-fq3BGyV1-5">
          <mxGeometry relative="1" as="geometry" />
        </mxCell>
        <mxCell id="UI5CxxbX_UX-fq3BGyV1-14" style="edgeStyle=orthogonalEdgeStyle;rounded=0;orthogonalLoop=1;jettySize=auto;html=1;entryX=0;entryY=0.5;entryDx=0;entryDy=0;" edge="1" parent="1" source="UI5CxxbX_UX-fq3BGyV1-3" target="UI5CxxbX_UX-fq3BGyV1-6">
          <mxGeometry relative="1" as="geometry" />
        </mxCell>
        <mxCell id="UI5CxxbX_UX-fq3BGyV1-3" value="Service" style="rounded=1;whiteSpace=wrap;html=1;" vertex="1" parent="1">
          <mxGeometry x="350" y="340" width="120" height="60" as="geometry" />
        </mxCell>
        <mxCell id="UI5CxxbX_UX-fq3BGyV1-4" value="Backend (pod)" style="rounded=1;whiteSpace=wrap;html=1;" vertex="1" parent="1">
          <mxGeometry x="530" y="250" width="120" height="60" as="geometry" />
        </mxCell>
        <mxCell id="UI5CxxbX_UX-fq3BGyV1-5" value="Backend (pod)" style="rounded=1;whiteSpace=wrap;html=1;" vertex="1" parent="1">
          <mxGeometry x="530" y="340" width="120" height="60" as="geometry" />
        </mxCell>
        <mxCell id="UI5CxxbX_UX-fq3BGyV1-6" value="Backend (pod)" style="rounded=1;whiteSpace=wrap;html=1;" vertex="1" parent="1">
          <mxGeometry x="530" y="420" width="120" height="60" as="geometry" />
        </mxCell>
        <mxCell id="UI5CxxbX_UX-fq3BGyV1-8" value="db" style="shape=cylinder3;whiteSpace=wrap;html=1;boundedLbl=1;backgroundOutline=1;size=15;" vertex="1" parent="1">
          <mxGeometry x="720" y="330" width="60" height="80" as="geometry" />
        </mxCell>
        <mxCell id="UI5CxxbX_UX-fq3BGyV1-9" value="" style="endArrow=none;dashed=1;html=1;dashPattern=1 3;strokeWidth=2;rounded=0;" edge="1" parent="1">
          <mxGeometry width="50" height="50" relative="1" as="geometry">
            <mxPoint x="589.38" y="490" as="sourcePoint" />
            <mxPoint x="589.38" y="570" as="targetPoint" />
          </mxGeometry>
        </mxCell>
        <mxCell id="UI5CxxbX_UX-fq3BGyV1-10" value="Auto-Scale" style="text;html=1;align=center;verticalAlign=middle;resizable=0;points=[];autosize=1;strokeColor=none;fillColor=none;" vertex="1" parent="1">
          <mxGeometry x="550" y="560" width="80" height="30" as="geometry" />
        </mxCell>
        <mxCell id="UI5CxxbX_UX-fq3BGyV1-15" value="K8s Cluster" style="text;html=1;align=center;verticalAlign=middle;resizable=0;points=[];autosize=1;strokeColor=none;fillColor=none;" vertex="1" parent="1">
          <mxGeometry x="365" y="140" width="90" height="30" as="geometry" />
        </mxCell>
        <mxCell id="UI5CxxbX_UX-fq3BGyV1-18" style="edgeStyle=orthogonalEdgeStyle;rounded=0;orthogonalLoop=1;jettySize=auto;html=1;entryX=0;entryY=0.5;entryDx=0;entryDy=0;entryPerimeter=0;" edge="1" parent="1" source="UI5CxxbX_UX-fq3BGyV1-4" target="UI5CxxbX_UX-fq3BGyV1-8">
          <mxGeometry relative="1" as="geometry" />
        </mxCell>
        <mxCell id="UI5CxxbX_UX-fq3BGyV1-20" style="edgeStyle=orthogonalEdgeStyle;rounded=0;orthogonalLoop=1;jettySize=auto;html=1;entryX=0;entryY=0.5;entryDx=0;entryDy=0;entryPerimeter=0;" edge="1" parent="1" source="UI5CxxbX_UX-fq3BGyV1-5" target="UI5CxxbX_UX-fq3BGyV1-8">
          <mxGeometry relative="1" as="geometry" />
        </mxCell>
        <mxCell id="UI5CxxbX_UX-fq3BGyV1-21" style="edgeStyle=orthogonalEdgeStyle;rounded=0;orthogonalLoop=1;jettySize=auto;html=1;entryX=0;entryY=0.5;entryDx=0;entryDy=0;entryPerimeter=0;" edge="1" parent="1" source="UI5CxxbX_UX-fq3BGyV1-6" target="UI5CxxbX_UX-fq3BGyV1-8">
          <mxGeometry relative="1" as="geometry" />
        </mxCell>
      </root>
    </mxGraphModel>
  </diagram>
</mxfile>
